<?xml version="1.0" encoding="UTF-8" standalone="no"?><svg xmlns="http://www.w3.org/2000/svg" xmlns:xlink="http://www.w3.org/1999/xlink" contentScriptType="application/ecmascript" contentStyleType="text/css" height="272px" preserveAspectRatio="none" style="width:368px;height:272px;" version="1.1" viewBox="0 0 368 272" width="368px" zoomAndPan="magnify"><defs><filter height="300%" id="f13irk80j7s617" width="300%" x="-1" y="-1"><feGaussianBlur result="blurOut" stdDeviation="2.0"/><feColorMatrix in="blurOut" result="blurOut2" type="matrix" values="0 0 0 0 0 0 0 0 0 0 0 0 0 0 0 0 0 0 .4 0"/><feOffset dx="4.0" dy="4.0" in="blurOut2" result="blurOut3"/><feBlend in="SourceGraphic" in2="blurOut3" mode="normal"/></filter></defs><g><!--MD5=[b59fa447a9974c0219477a61110c54f7]
class trading_suggestor--><rect codeLine="2" fill="#FEFECE" filter="url(#f13irk80j7s617)" height="112.0234" id="trading_suggestor" style="stroke: #A80036; stroke-width: 1.5;" width="342" x="7" y="141"/><ellipse cx="118.75" cy="157" fill="#ADD1B2" rx="11" ry="11" style="stroke: #A80036; stroke-width: 1.0;"/><path d="M121.0938,152.6719 C120.1563,152.2344 119.5625,152.0938 118.6875,152.0938 C116.0625,152.0938 114.0625,154.1719 114.0625,156.8906 L114.0625,158.0156 C114.0625,160.5938 116.1719,162.4844 119.0625,162.4844 C120.2813,162.4844 121.4375,162.1875 122.1875,161.6406 C122.7656,161.2344 123.0938,160.7813 123.0938,160.3906 C123.0938,159.9375 122.7031,159.5469 122.2344,159.5469 C122.0156,159.5469 121.8125,159.625 121.625,159.8125 C121.1719,160.2969 121.1719,160.2969 120.9844,160.3906 C120.5625,160.6563 119.875,160.7813 119.1094,160.7813 C117.0625,160.7813 115.7656,159.6875 115.7656,157.9844 L115.7656,156.8906 C115.7656,155.1094 117.0156,153.7969 118.75,153.7969 C119.3281,153.7969 119.9375,153.9531 120.4063,154.2031 C120.8906,154.4844 121.0625,154.7031 121.1563,155.1094 C121.2188,155.5156 121.25,155.6406 121.3906,155.7656 C121.5313,155.9063 121.7656,156.0156 121.9844,156.0156 C122.25,156.0156 122.5156,155.875 122.6875,155.6563 C122.7969,155.5 122.8281,155.3125 122.8281,154.8906 L122.8281,153.4688 C122.8281,153.0313 122.8125,152.9063 122.7188,152.75 C122.5625,152.4844 122.2813,152.3438 121.9844,152.3438 C121.6875,152.3438 121.4844,152.4375 121.2656,152.75 L121.0938,152.6719 Z "/><text fill="#000000" font-family="sans-serif" font-size="12" lengthAdjust="spacingAndGlyphs" textLength="110" x="139.25" y="161.1543">trading_suggestor</text><line style="stroke: #A80036; stroke-width: 1.5;" x1="8" x2="348" y1="173" y2="173"/><text fill="#000000" font-family="sans-serif" font-size="11" lengthAdjust="spacingAndGlyphs" textLength="88" x="13" y="187.2104">+symbol: string</text><text fill="#000000" font-family="sans-serif" font-size="11" lengthAdjust="spacingAndGlyphs" textLength="330" x="13" y="200.0151">+specific_day[]: individual_days_series.series_specificday</text><line style="stroke: #A80036; stroke-width: 1.5;" x1="8" x2="348" y1="206.6094" y2="206.6094"/><text fill="#000000" font-family="sans-serif" font-size="11" lengthAdjust="spacingAndGlyphs" textLength="264" x="13" y="220.8198">+data: pandas.DataFrame.from_dict(response)</text><text fill="#000000" font-family="sans-serif" font-size="11" lengthAdjust="spacingAndGlyphs" textLength="242" x="13" y="233.6245">void fetch_specific_day_data(specific_day)</text><text fill="#000000" font-family="sans-serif" font-size="11" lengthAdjust="spacingAndGlyphs" textLength="109" x="13" y="246.4292">void show_results()</text><!--MD5=[adcb07f7231f6b1a3fe0afdee4f74c88]
class individual_days_series--><rect codeLine="11" fill="#FEFECE" filter="url(#f13irk80j7s617)" height="73.6094" id="individual_days_series" style="stroke: #A80036; stroke-width: 1.5;" width="167" x="94.5" y="7"/><ellipse cx="109.5" cy="23" fill="#ADD1B2" rx="11" ry="11" style="stroke: #A80036; stroke-width: 1.0;"/><path d="M111.8438,18.6719 C110.9063,18.2344 110.3125,18.0938 109.4375,18.0938 C106.8125,18.0938 104.8125,20.1719 104.8125,22.8906 L104.8125,24.0156 C104.8125,26.5938 106.9219,28.4844 109.8125,28.4844 C111.0313,28.4844 112.1875,28.1875 112.9375,27.6406 C113.5156,27.2344 113.8438,26.7813 113.8438,26.3906 C113.8438,25.9375 113.4531,25.5469 112.9844,25.5469 C112.7656,25.5469 112.5625,25.625 112.375,25.8125 C111.9219,26.2969 111.9219,26.2969 111.7344,26.3906 C111.3125,26.6563 110.625,26.7813 109.8594,26.7813 C107.8125,26.7813 106.5156,25.6875 106.5156,23.9844 L106.5156,22.8906 C106.5156,21.1094 107.7656,19.7969 109.5,19.7969 C110.0781,19.7969 110.6875,19.9531 111.1563,20.2031 C111.6406,20.4844 111.8125,20.7031 111.9063,21.1094 C111.9688,21.5156 112,21.6406 112.1406,21.7656 C112.2813,21.9063 112.5156,22.0156 112.7344,22.0156 C113,22.0156 113.2656,21.875 113.4375,21.6563 C113.5469,21.5 113.5781,21.3125 113.5781,20.8906 L113.5781,19.4688 C113.5781,19.0313 113.5625,18.9063 113.4688,18.75 C113.3125,18.4844 113.0313,18.3438 112.7344,18.3438 C112.4375,18.3438 112.2344,18.4375 112.0156,18.75 L111.8438,18.6719 Z "/><text fill="#000000" font-family="sans-serif" font-size="12" lengthAdjust="spacingAndGlyphs" textLength="135" x="123.5" y="27.1543">individual_days_series</text><line style="stroke: #A80036; stroke-width: 1.5;" x1="95.5" x2="260.5" y1="39" y2="39"/><text fill="#000000" font-family="sans-serif" font-size="11" lengthAdjust="spacingAndGlyphs" textLength="128" x="100.5" y="53.2104">+series_specific_day[]</text><line style="stroke: #A80036; stroke-width: 1.5;" x1="95.5" x2="260.5" y1="59.8047" y2="59.8047"/><text fill="#000000" font-family="sans-serif" font-size="11" lengthAdjust="spacingAndGlyphs" textLength="136" x="100.5" y="74.0151">void fetch_todays_day()</text><!--MD5=[66ccfa33c25dd53566827c2519aeb520]
reverse link individual_days_series to trading_suggestor--><path codeLine="17" d="M178,101.281 C178,114.25 178,128.03 178,140.946 " fill="none" id="individual_days_series-backto-trading_suggestor" style="stroke: #A80036; stroke-width: 1.0;"/><polygon fill="none" points="171,101.168,178,81.168,185,101.168,171,101.168" style="stroke: #A80036; stroke-width: 1.0;"/><!--MD5=[674b1f89f340b421057c51ef4ec48f2e]
@startuml
skinparam classAttributeIconSize 0
class trading_suggestor{
  + symbol: string
  + data: pandas.DataFrame.from_dict(response)
  + specific_day[]: individual_days_series.series_specificday

  void fetch_specific_day_data(specific_day)
  void show_results()
}

class individual_days_series{
  + series_specific_day[]
    
  void fetch_todays_day()
}

individual_days_series <|- - trading_suggestor
@enduml

PlantUML version 1.2020.17beta5(Unknown compile time)
(GPL source distribution)
Java Runtime: Java(TM) SE Runtime Environment
JVM: Java HotSpot(TM) 64-Bit Server VM
Default Encoding: UTF-8
Language: en
Country: US
--></g></svg>