<?xml version="1.0" encoding="UTF-8" standalone="no"?><svg xmlns="http://www.w3.org/2000/svg" xmlns:xlink="http://www.w3.org/1999/xlink" contentScriptType="application/ecmascript" contentStyleType="text/css" height="204px" preserveAspectRatio="none" style="width:780px;height:204px;" version="1.1" viewBox="0 0 780 204" width="780px" zoomAndPan="magnify"><defs><filter height="300%" id="f2azvjncl8py0" width="300%" x="-1" y="-1"><feGaussianBlur result="blurOut" stdDeviation="2.0"/><feColorMatrix in="blurOut" result="blurOut2" type="matrix" values="0 0 0 0 0 0 0 0 0 0 0 0 0 0 0 0 0 0 .4 0"/><feOffset dx="4.0" dy="4.0" in="blurOut2" result="blurOut3"/><feBlend in="SourceGraphic" in2="blurOut3" mode="normal"/></filter></defs><g><!--MD5=[76e8ae2a00afe30abfd5e8fa4a9d08c4]
cluster trading_suggestor--><rect fill="#FFFFFF" filter="url(#f2azvjncl8py0)" height="180" style="stroke: #000000; stroke-width: 1.5;" width="682" x="81" y="7"/><text fill="#000000" font-family="sans-serif" font-size="14" font-weight="bold" lengthAdjust="spacingAndGlyphs" textLength="149" x="347.5" y="21.9951">trading_suggestor</text><ellipse cx="182.728" cy="107.0456" fill="#FEFECE" filter="url(#f2azvjncl8py0)" rx="85.728" ry="19.5456" style="stroke: #A80036; stroke-width: 1.5;"/><text fill="#000000" font-family="sans-serif" font-size="14" lengthAdjust="spacingAndGlyphs" textLength="144" x="110.728" y="111.694">give ticker and date</text><ellipse cx="402.7002" cy="106.84" fill="#FEFECE" filter="url(#f2azvjncl8py0)" rx="74.7002" ry="17.34" style="stroke: #A80036; stroke-width: 1.5;"/><text fill="#000000" font-family="sans-serif" font-size="14" lengthAdjust="spacingAndGlyphs" textLength="118" x="343.7002" y="111.4885">fetch dataframe</text><ellipse cx="642.1608" cy="148.0322" fill="#FEFECE" filter="url(#f2azvjncl8py0)" rx="103.1608" ry="23.0322" style="stroke: #A80036; stroke-width: 1.5;"/><text fill="#000000" font-family="sans-serif" font-size="14" lengthAdjust="spacingAndGlyphs" textLength="183" x="550.6608" y="152.6806">show last 3 months result</text><ellipse cx="641.9911" cy="65.8982" fill="#FEFECE" filter="url(#f2azvjncl8py0)" rx="104.9911" ry="23.3982" style="stroke: #A80036; stroke-width: 1.5;"/><text fill="#000000" font-family="sans-serif" font-size="14" lengthAdjust="spacingAndGlyphs" textLength="187" x="548.4911" y="70.5466">show total no. high closed</text><!--MD5=[778fdad4168e1c9e2d13c8a5e427c42e]
entity usr--><ellipse cx="21.5" cy="76" fill="#FEFECE" filter="url(#f2azvjncl8py0)" rx="8" ry="8" style="stroke: #A80036; stroke-width: 1.5;"/><path d="M21.5,84 L21.5,111 M8.5,92 L34.5,92 M21.5,111 L8.5,126 M21.5,111 L34.5,126 " fill="none" filter="url(#f2azvjncl8py0)" style="stroke: #A80036; stroke-width: 1.5;"/><text fill="#000000" font-family="sans-serif" font-size="14" lengthAdjust="spacingAndGlyphs" textLength="31" x="6" y="144.4951">User</text><!--MD5=[acb4f1762d4d3537c2053eaab296f883]
link usr to td--><path d="M37.1733,107 C50.1979,107 70.4055,107 91.6163,107 " fill="none" id="usr-to-td" style="stroke: #A80036; stroke-width: 1.0;"/><polygon fill="#A80036" points="96.7338,107,87.7338,103,91.7338,107,87.7338,111,96.7338,107" style="stroke: #A80036; stroke-width: 1.0;"/><!--MD5=[75d75e35013156d5cf6c5297c90f33ff]
link td to df--><path d="M268.097,107 C285.993,107 304.815,107 322.495,107 " fill="none" id="td-to-df" style="stroke: #A80036; stroke-width: 1.0;"/><polygon fill="#A80036" points="327.943,107,318.943,103,322.943,107,318.943,111,327.943,107" style="stroke: #A80036; stroke-width: 1.0;"/><!--MD5=[13e3d033084faad90f859abaa7b2569d]
link df to result--><path d="M463.125,117.2931 C490.792,122.0693 524.207,127.8379 554.572,133.0797 " fill="none" id="df-to-result" style="stroke: #A80036; stroke-width: 1.0;"/><polygon fill="#A80036" points="559.809,133.9839,551.6216,128.5098,554.882,133.1325,550.2593,136.393,559.809,133.9839" style="stroke: #A80036; stroke-width: 1.0;"/><!--MD5=[896c5c06aa2f7ed46adb678da8542b4f]
link df to hc--><path d="M463.125,96.707 C490.402,91.998 523.267,86.324 553.287,81.142 " fill="none" id="df-to-hc" style="stroke: #A80036; stroke-width: 1.0;"/><polygon fill="#A80036" points="558.467,80.248,548.918,77.8362,553.5398,81.098,550.278,85.7198,558.467,80.248" style="stroke: #A80036; stroke-width: 1.0;"/><!--MD5=[3facc3d2d922aa70d7ac09bc4a0ccd77]
@startuml
left to right direction
actor "User" as usr
rectangle trading_suggestor {
  usecase "give ticker and date" as td
  usecase "fetch dataframe" as df
  usecase "show last 3 months result" as result
  usecase "show total no. high closed" as hc
}
usr - -> td
td - -> df
df - -> result 
df - -> hc
@enduml

PlantUML version 1.2020.17beta5(Unknown compile time)
(GPL source distribution)
Java Runtime: Java(TM) SE Runtime Environment
JVM: Java HotSpot(TM) 64-Bit Server VM
Default Encoding: UTF-8
Language: en
Country: US
--></g></svg>